# xmcd
#
# Track frame offsets: 
#        150
#        14850
#        29175
#        45150
#        60310
#        84375
#        106146
#        121896
#        138696
#        164171
#        184271
#        204296
#
# Disc length: 2990 seconds
#
# Revision: 5
# Processed by: cddbd v1.5.2PL0 Copyright (c) Steve Scherf et al.
# Submitted via: ExactAudioCopy v1.0b1
#
DISCID=a60bac0c
DTITLE=The Jeff Healey Band - See The Light (VinylRip)
DYEAR=1988
DGENRE=Blues
TTITLE0=Confidence Man
TTITLE1=My Little Girl
TTITLE2=River Of No Return
TTITLE3=Don't Let Your Chance Go By
TTITLE4=Angel Eyes
TTITLE5=Nice Problem To Have
TTITLE6=Someday, Someway
TTITLE7=I Need To Be Loved
TTITLE8=Blue Jeans Blues
TTITLE9=That's What They Say
TTITLE10=Hideaway
TTITLE11=See The Light
EXTD=
EXTT0=
EXTT1=
EXTT2=
EXTT3=
EXTT4=
EXTT5=
EXTT6=
EXTT7=
EXTT8=
EXTT9=
EXTT10=
EXTT11=
PLAYORDER=
